<svg xmlns="http://www.w3.org/2000/svg" width="17.518" height="17.518" viewBox="0 0 17.518 17.518"><defs><style>.a{fill:#252e3b;}.b{fill:#fff;}</style></defs><g transform="translate(-59.24 -375.334)"><circle class="a" cx="8.759" cy="8.759" r="8.759" transform="translate(59.24 375.334)"/><path class="b" d="M2.4,8.494H1.6v-1.3l-.28,0-.285,0H0l.16-.934H.736a.277.277,0,0,0,.3-.261V3.941h.083a.548.548,0,0,0-.083-.005V2.47a.412.412,0,0,0-.461-.347H0V1.286l1.1.005c.214,0,.383,0,.5-.005V0h.8V1.261c.294-.007.5-.01.632-.01V0h.8V1.286a4.706,4.706,0,0,1,.726.115,2.408,2.408,0,0,1,.585.23,1.188,1.188,0,0,1,.427.4,1.29,1.29,0,0,1,.189.584A1.211,1.211,0,0,1,5.077,3.93a1.568,1.568,0,0,1,.907.526,1.5,1.5,0,0,1,.233,1.092,1.914,1.914,0,0,1-.169.638,1.422,1.422,0,0,1-.334.454,1.71,1.71,0,0,1-.5.3,3.1,3.1,0,0,1-.63.176,6.293,6.293,0,0,1-.753.077v1.3h-.8V7.212c-.3,0-.5,0-.632,0V8.494Zm.6-3.972c-.082,0-.188,0-.334.005l-.246.005V6.258l.167,0h.025l.249,0c.065,0,.158,0,.275-.007s.22-.012.3-.021.189-.024.3-.043a1.967,1.967,0,0,0,.288-.071,1.814,1.814,0,0,0,.246-.107.717.717,0,0,0,.2-.153.729.729,0,0,0,.127-.2.722.722,0,0,0-.028-.587.771.771,0,0,0-.192-.235.981.981,0,0,0-.3-.156,2.614,2.614,0,0,0-.339-.094,3.134,3.134,0,0,0-.383-.046C3.2,4.527,3.079,4.522,2.994,4.522ZM2.93,2.171H2.9l-.225,0H2.56l-.146,0V3.747h.42l.209-.008.051,0a2.29,2.29,0,0,0,.285-.028c.085-.016.175-.035.267-.056A.885.885,0,0,0,3.9,3.56a1.36,1.36,0,0,0,.192-.138.493.493,0,0,0,.14-.2.706.706,0,0,0,.046-.26.668.668,0,0,0-.065-.3.716.716,0,0,0-.158-.214A.775.775,0,0,0,3.8,2.31a1.848,1.848,0,0,0-.285-.084,2.921,2.921,0,0,0-.318-.04C3.094,2.176,3,2.171,2.93,2.171Z" transform="translate(65.08 379.992)"/></g></svg>