<svg xmlns="http://www.w3.org/2000/svg" width="14.954" height="11.416" viewBox="0 0 14.954 11.416"><defs><style>.a{fill:#252e3b;}</style></defs><g transform="translate(-59.852 -440.027)"><path class="a" d="M142.2,1078.891q.284.195,1.711,1.155t2.186,1.48l.355.247q.271.191.451.308t.434.263a2.56,2.56,0,0,0,.48.219,1.357,1.357,0,0,0,.417.073h.017a1.357,1.357,0,0,0,.417-.073,2.557,2.557,0,0,0,.48-.219q.254-.146.434-.263t.451-.308q.271-.191.355-.247l3.905-2.635a3.909,3.909,0,0,0,1.018-1,2.1,2.1,0,0,0,.409-1.224,1.226,1.226,0,0,0-.4-.916,1.309,1.309,0,0,0-.939-.381H142.1a1.207,1.207,0,0,0-.989.422,1.606,1.606,0,0,0-.346,1.054,1.863,1.863,0,0,0,.459,1.107A4.087,4.087,0,0,0,142.2,1078.891Z" transform="translate(-80.915 -635.345)"/><path class="a" d="M154.886,1083.13q-2.737,1.8-4.156,2.8-.476.341-.772.531a4.8,4.8,0,0,1-.789.389,2.461,2.461,0,0,1-.918.2h-.017a2.461,2.461,0,0,1-.918-.2,4.8,4.8,0,0,1-.789-.389q-.3-.19-.772-.531-1.127-.8-4.147-2.8a4.393,4.393,0,0,1-.843-.705v6.438a1.231,1.231,0,0,0,.392.916,1.3,1.3,0,0,0,.943.381h12.284a1.3,1.3,0,0,0,.943-.381,1.231,1.231,0,0,0,.392-.916v-6.438A4.571,4.571,0,0,1,154.886,1083.13Z" transform="translate(-80.915 -638.717)"/></g></svg>