<svg xmlns="http://www.w3.org/2000/svg" width="12.232" height="20.387" viewBox="0 0 12.232 20.387"><defs><style>.a{fill:#252e3b;}</style></defs><path class="a" d="M7.39,18.348a1.278,1.278,0,0,0-1.274-1.274,1.274,1.274,0,1,0,.9,2.174A1.227,1.227,0,0,0,7.39,18.348ZM10.7,15.8V4.587a.516.516,0,0,0-.51-.51H2.039a.516.516,0,0,0-.51.51V15.8a.516.516,0,0,0,.51.51h8.155a.516.516,0,0,0,.51-.51ZM7.645,2.294a.225.225,0,0,0-.255-.255H4.842a.225.225,0,0,0-.255.255.225.225,0,0,0,.255.255H7.39A.225.225,0,0,0,7.645,2.294Zm4.587-.255v16.31a2.068,2.068,0,0,1-2.039,2.039H2.039a1.958,1.958,0,0,1-1.433-.605A1.962,1.962,0,0,1,0,18.348V2.039A1.958,1.958,0,0,1,.605.605,1.962,1.962,0,0,1,2.039,0h8.155a1.958,1.958,0,0,1,1.433.605,1.962,1.962,0,0,1,.605,1.433Z"/></svg>