<svg xmlns="http://www.w3.org/2000/svg" width="19.821" height="13.875" viewBox="0 0 19.821 13.875"><defs><style>.a{fill:#252e3b;}</style></defs><path class="a" d="M2.973,8.2A1.982,1.982,0,1,0,.991,6.214,1.984,1.984,0,0,0,2.973,8.2Zm13.875,0a1.982,1.982,0,1,0-1.982-1.982A1.984,1.984,0,0,0,16.848,8.2Zm.991.991H15.857a1.976,1.976,0,0,0-1.4.576,4.53,4.53,0,0,1,2.326,3.388H18.83a.99.99,0,0,0,.991-.991V11.17A1.984,1.984,0,0,0,17.839,9.187Zm-7.929,0A3.469,3.469,0,1,0,6.442,5.719,3.467,3.467,0,0,0,9.911,9.187Zm2.379.991h-.257a4.789,4.789,0,0,1-4.243,0H7.532a3.569,3.569,0,0,0-3.568,3.568v.892a1.487,1.487,0,0,0,1.487,1.487h8.92a1.487,1.487,0,0,0,1.487-1.487v-.892A3.569,3.569,0,0,0,12.289,10.179ZM5.361,9.764a1.976,1.976,0,0,0-1.4-.576H1.982A1.984,1.984,0,0,0,0,11.17v.991a.99.99,0,0,0,.991.991H3.032A4.542,4.542,0,0,1,5.361,9.764Z" transform="translate(0 -2.25)"/></svg>